<svg width="800" height="192" viewBox="0 0 800 192" fill="none" xmlns="http://www.w3.org/2000/svg">
<path d="M126.205 101.717C125.951 86.239 132.637 74.1902 146.246 65.5659C138.571 54.4049 127.251 48.1317 112.283 46.7293C106.959 46.2293 100.151 47.4878 91.8707 50.5366C82.9634 53.839 77.9488 55.4805 76.8366 55.4805C74.4854 55.4805 69.9707 54.0927 63.2805 51.2951C56.6049 48.5049 50.9098 47.1098 46.2073 47.1098C38.2902 47.239 30.9244 49.4268 24.122 53.6732C17.3171 57.9244 11.8756 63.7317 7.79512 71.0805C2.59268 80.2171 0 91.1268 0 103.807C0 115.222 1.91219 126.634 5.74634 138.056C9.33415 148.966 13.9195 158.541 19.4805 166.778C24.4244 174.263 28.7707 179.717 32.4707 183.146C37.7976 188.471 43.2341 191.012 48.8098 190.754C52.3951 190.622 57.0927 189.293 62.9098 186.749C68.3488 184.351 73.7976 183.144 79.2439 183.144C84.3146 183.144 89.5683 184.344 95.0195 186.749C101.078 189.293 106.032 190.559 109.866 190.559C115.559 190.31 120.876 187.834 125.832 183.146C127.556 181.617 129.446 179.527 131.485 176.863C133.839 173.761 136.1 170.589 138.263 167.351C140.066 164.559 141.769 161.704 143.368 158.79C145.084 155.653 146.602 152.412 147.915 149.085C148.527 147.69 149.083 146.266 149.583 144.807C150.076 143.349 150.571 141.863 151.066 140.339C146.488 138.315 142.341 135.449 138.632 131.768C130.476 123.663 126.329 113.639 126.205 101.717ZM260.783 135.634H259.883L222.193 49.5024H192.595V188.471H218.39V98.4683H219.588L251.085 169.937H269.176L300.573 98.4683H301.776V188.471H327.868V49.5024H298.473L260.783 135.634ZM102.815 31.322C109.376 23.0756 112.656 14.1976 112.656 4.68293V2.78293C112.656 2.14391 112.593 1.5122 112.471 0.878052C107.89 1.13171 103.037 2.59269 97.8976 5.25122C92.7659 7.91952 88.5293 11.2854 85.1829 15.3366C78.5049 23.3341 75.161 31.8902 75.161 41.0244V42.8268C75.161 43.4024 75.2244 44.0024 75.3463 44.6415C85.6195 45.6537 94.7756 41.2122 102.815 31.322ZM629.351 49.5024H658.344V188.473H629.351V49.5024ZM745.91 71.5927C763.105 71.5927 772.198 84.8293 772.198 99.0829H800V96.1293C800 69.2537 779.502 46.8585 745.707 46.8585C709.512 46.8585 687.92 70.6805 687.92 111.305V126.985C687.92 167.598 709.312 191.124 745.605 191.124C780.3 191.124 800 168.412 800 143.168V140.115H772.2C772.2 154.476 763.305 166.385 746.115 166.385C728.512 166.385 717.312 153.861 717.312 127.08V111.412C717.312 84.7244 728.615 71.5927 745.91 71.5927ZM438.756 137.259C438.756 155.895 427.859 166.173 411.863 166.173C395.766 166.173 384.871 155.993 384.871 137.259V49.5024H356.073V141.332C356.073 170.966 377.066 191.122 411.859 191.122C446.554 191.122 467.646 170.966 467.646 141.332V49.5024H438.756V137.259ZM563.571 107.534L542.878 102.856C530.683 100.302 524.283 94.9098 524.283 86.8634C524.283 76.1781 532.978 69.4561 546.983 69.4561C562.778 69.4561 570.676 78.5171 571.373 88.2927H598.368C598.068 63.7537 577.576 46.6512 547.078 46.6512C518.188 46.6512 495.39 61.8244 495.39 89.1073C495.39 112.727 511.39 123.715 530.585 127.9L551.078 132.68C564.876 135.837 571.873 140.422 571.873 149.883C571.873 160.683 563.273 168.015 547.18 168.015C529.883 168.015 520.783 158.849 519.988 148.563H492.19C492.598 168.215 505.593 191.122 545.785 191.122C579.576 191.122 600.476 174.324 600.476 147.029C600.466 121.78 583.568 111.905 563.571 107.534Z" fill="white"/>
</svg>
