<svg width="103" height="21" viewBox="0 0 103 21" fill="none" xmlns="http://www.w3.org/2000/svg">
<g clip-path="url(#clip0_22_189)">
<path d="M20.4846 6.48553H16.075V9.05876H20.4846V6.48553Z" fill="#29AB70"/>
<path d="M20.4846 10.0692H16.075V12.6424H20.4846V10.0692Z" fill="url(#paint0_linear_22_189)"/>
<path d="M20.4846 13.6511H16.075V16.2243H20.4846V13.6511Z" fill="url(#paint1_linear_22_189)"/>
<path d="M4.5 17.2348H0.0905304V19.808H4.5V17.2348Z" fill="url(#paint2_linear_22_189)"/>
<path d="M9.82757 17.2348H5.41811V19.808H9.82757V17.2348Z" fill="url(#paint3_linear_22_189)"/>
<path d="M15.1569 17.2348H10.7474V19.808H15.1569V17.2348Z" fill="url(#paint4_linear_22_189)"/>
<path d="M20.4846 17.2348H16.075V19.808H20.4846V17.2348Z" fill="url(#paint5_linear_22_189)"/>
<path d="M15.1569 13.6511H10.7474V16.2243H15.1569V13.6511Z" fill="url(#paint6_linear_22_189)"/>
<path d="M9.82757 13.6511H5.41811V16.2243H9.82757V13.6511Z" fill="url(#paint7_linear_22_189)"/>
<path d="M9.82757 10.0692H5.41811V12.6424H9.82757V10.0692Z" fill="url(#paint8_linear_22_189)"/>
<path d="M59.5733 17.011C57.6607 17.011 56.0872 15.8585 56.0588 13.834H65.1157C65.2344 13.2988 65.294 12.7521 65.2933 12.2038C65.2933 8.54729 62.7911 6.21381 59.108 6.21381C55.1709 6.21381 52.4716 9.27894 52.4716 13.074C52.4716 17.2916 55.3964 20.1046 59.5289 20.1046C62.6508 20.1046 64.8156 18.5294 65.7444 15.942L62.6668 14.7397C62.2442 16.2528 61.2035 17.011 59.5733 17.011ZM59.0956 9.11024C60.6938 9.11024 61.7949 9.98218 61.7949 11.3318L61.7664 11.4437H56.0588C56.3962 9.98219 57.634 9.11024 59.0956 9.11024Z" fill="white"/>
<path d="M77.7348 9.44758V6.49432H66.1224V9.58788H73.2081L65.8969 16.7304V19.8222H77.9319V16.5883H70.3952L77.7348 9.44758Z" fill="white"/>
<path d="M99.4234 10.7973C99.4245 11.0212 99.4096 11.245 99.379 11.4668H102.79C102.873 11.0331 102.913 10.5924 102.909 10.1509C102.909 7.87246 101.476 6.21381 99.086 6.21381C97.5392 6.21381 96.4435 6.97387 95.8806 8.20987V6.49617H92.2827V19.8151H95.8806V11.2466C95.8806 9.89694 96.6122 9.13865 97.7363 9.13865C98.7486 9.13865 99.4234 9.81348 99.4234 10.7973Z" fill="white"/>
<path d="M34.6291 8.49219C33.8122 7.11412 32.2939 6.21376 30.4115 6.21376C26.755 6.21376 24.0841 9.02673 24.0841 13.216C24.0841 17.3484 26.7283 20.1046 30.4949 20.1046C32.3791 20.1046 33.8975 19.2877 34.7694 17.9114V19.8222H38.227V0.14032H34.6291V8.49219ZM31.2248 17.0483C29.2287 17.0483 27.6731 15.5868 27.6731 13.2249C27.6731 10.8346 29.2199 9.31797 31.2248 9.31797C33.1641 9.31797 34.7677 10.8363 34.7677 13.2249C34.7677 15.5779 33.1641 17.0483 31.2248 17.0483Z" fill="white"/>
<path d="M85.2076 17.011C83.295 17.011 81.7216 15.8585 81.6932 13.834H90.7501C90.8689 13.2988 90.9284 12.7521 90.9277 12.2038C90.9277 8.54729 88.4255 6.21381 84.7424 6.21381C80.8053 6.21381 78.106 9.27894 78.106 13.074C78.106 17.2916 81.0308 20.1046 85.1632 20.1046C88.2852 20.1046 90.45 18.5294 91.3788 15.942L88.2994 14.7397C87.8785 16.2528 86.8397 17.011 85.2076 17.011ZM84.7299 9.11024C86.3282 9.11024 87.4292 9.98218 87.4292 11.3318L87.4008 11.4437H81.6897C82.0306 9.98219 83.2666 9.11024 84.7299 9.11024Z" fill="white"/>
<path d="M46.2843 17.011C44.3717 17.011 42.7983 15.8585 42.7699 13.834H51.8268C51.9434 13.2986 51.9999 12.7518 51.9955 12.2038C51.9955 8.54729 49.4933 6.21381 45.8101 6.21381C41.873 6.21381 39.1737 9.27894 39.1737 13.074C39.1737 17.2916 42.0986 20.1046 46.231 20.1046C49.353 20.1046 51.5178 18.5294 52.4465 15.942L49.3778 14.7397C48.9552 16.2528 47.9145 17.011 46.2843 17.011ZM45.8066 9.11024C47.4049 9.11024 48.5059 9.98218 48.5059 11.3318L48.4775 11.4437H42.7699C43.1073 9.98219 44.345 9.11024 45.8066 9.11024Z" fill="white"/>
</g>
<defs>
<linearGradient id="paint0_linear_22_189" x1="18.5666" y1="12.9798" x2="17.993" y2="9.72996" gradientUnits="userSpaceOnUse">
<stop stop-color="#2C8C9D"/>
<stop offset="0.04" stop-color="#298E9A"/>
<stop offset="0.39" stop-color="#129C83"/>
<stop offset="0.72" stop-color="#05A475"/>
<stop offset="1" stop-color="#00A770"/>
</linearGradient>
<linearGradient id="paint1_linear_22_189" x1="16.0093" y1="16.0946" x2="20.5503" y2="13.7807" gradientUnits="userSpaceOnUse">
<stop stop-color="#2839BA"/>
<stop offset="1" stop-color="#148CB3"/>
</linearGradient>
<linearGradient id="paint2_linear_22_189" x1="0.0905304" y1="18.5205" x2="4.5" y2="18.5205" gradientUnits="userSpaceOnUse">
<stop stop-color="#F6A500"/>
<stop offset="1" stop-color="#F29100"/>
</linearGradient>
<linearGradient id="paint3_linear_22_189" x1="5.41811" y1="18.5205" x2="9.82757" y2="18.5205" gradientUnits="userSpaceOnUse">
<stop stop-color="#F29100"/>
<stop offset="1" stop-color="#D12F5F"/>
</linearGradient>
<linearGradient id="paint4_linear_22_189" x1="10.7474" y1="18.5205" x2="15.1569" y2="18.5205" gradientUnits="userSpaceOnUse">
<stop stop-color="#B4197C"/>
<stop offset="1" stop-color="#472EAD"/>
</linearGradient>
<linearGradient id="paint5_linear_22_189" x1="16.075" y1="18.5205" x2="20.4846" y2="18.5205" gradientUnits="userSpaceOnUse">
<stop stop-color="#2839BA"/>
<stop offset="1" stop-color="#3072B7"/>
</linearGradient>
<linearGradient id="paint6_linear_22_189" x1="10.5734" y1="15.6329" x2="15.3291" y2="14.2424" gradientUnits="userSpaceOnUse">
<stop stop-color="#B4197C"/>
<stop offset="1" stop-color="#373AAC"/>
</linearGradient>
<linearGradient id="paint7_linear_22_189" x1="5.26361" y1="14.079" x2="9.98385" y2="15.7963" gradientUnits="userSpaceOnUse">
<stop stop-color="#FFCB00"/>
<stop offset="1" stop-color="#D12F5F"/>
</linearGradient>
<linearGradient id="paint8_linear_22_189" x1="5.79104" y1="9.66424" x2="9.45464" y2="13.0455" gradientUnits="userSpaceOnUse">
<stop stop-color="#FFCF00"/>
<stop offset="1" stop-color="#ED743B"/>
</linearGradient>
<clipPath id="clip0_22_189">
<rect width="103" height="20.2448" fill="white"/>
</clipPath>
</defs>
</svg>
