<svg width="102" height="31" viewBox="0 0 102 31" fill="none" xmlns="http://www.w3.org/2000/svg">
<path d="M24.7443 13.5867C19.8876 10.7025 11.8767 10.4373 7.24037 11.8444C6.49582 12.0702 5.70854 11.6499 5.48295 10.9054C5.25735 10.1606 5.6772 9.37381 6.42224 9.14747C11.7444 7.53182 20.5916 7.84398 26.1827 11.1629C26.8525 11.5603 27.0722 12.4252 26.6751 13.0939C26.2779 13.7635 25.4123 13.9842 24.7443 13.5867ZM24.5852 17.8586C24.2446 18.4116 23.5217 18.5848 22.9696 18.2455C18.9205 15.7566 12.7463 15.0356 7.95602 16.4896C7.33483 16.6773 6.67869 16.3271 6.49006 15.7071C6.30283 15.0859 6.65325 14.4309 7.27333 14.242C12.7456 12.5815 19.5483 13.3858 24.1987 16.2437C24.7509 16.5837 24.9247 17.3071 24.5852 17.8586ZM22.7416 21.9613C22.471 22.4051 21.8928 22.5444 21.4505 22.2738C17.9124 20.1114 13.4591 19.6229 8.21451 20.821C7.70905 20.9369 7.20543 20.62 7.0901 20.1148C6.97436 19.6094 7.28985 19.1059 7.79642 18.9905C13.5357 17.6785 18.4589 18.2432 22.4302 20.6699C22.8729 20.9402 23.0124 21.5187 22.7416 21.9613ZM15.8319 0.229734C7.51087 0.229734 0.76506 6.97516 0.76506 15.2962C0.76506 23.618 7.51087 30.3632 15.8319 30.3632C24.1532 30.3632 30.8987 23.618 30.8987 15.2962C30.8987 6.97516 24.1532 0.229734 15.8319 0.229734Z" fill="#1ED760"/>
<path d="M41.7566 14.1389C39.1552 13.5186 38.6919 13.0831 38.6919 12.1685C38.6919 11.304 39.5059 10.7225 40.716 10.7225C41.889 10.7225 43.052 11.1642 44.2717 12.0735C44.3086 12.101 44.3548 12.112 44.4003 12.1048C44.4458 12.0979 44.486 12.0731 44.5128 12.0353L45.783 10.2448C45.8351 10.1712 45.8209 10.0694 45.7506 10.0131C44.2992 8.84846 42.6648 8.28227 40.7545 8.28227C37.9456 8.28227 35.9836 9.96772 35.9836 12.3797C35.9836 14.9661 37.6761 15.8817 40.6008 16.5886C43.0902 17.162 43.5103 17.6423 43.5103 18.5012C43.5103 19.4527 42.6607 20.0443 41.2935 20.0443C39.7752 20.0443 38.5365 19.5328 37.1509 18.3329C37.1166 18.3034 37.0694 18.2898 37.0259 18.2923C36.9802 18.2961 36.9383 18.3173 36.9091 18.3523L35.4849 20.0473C35.4252 20.1177 35.4327 20.2228 35.5016 20.2836C37.1139 21.7227 39.0964 22.483 41.2359 22.483C44.2627 22.483 46.2185 20.8291 46.2185 18.2694C46.2185 16.1061 44.926 14.9098 41.7566 14.1389Z" fill="#1ED760"/>
<path d="M55.2635 17.0382C55.2635 18.8649 54.1383 20.1396 52.5271 20.1396C50.9343 20.1396 49.7328 18.807 49.7328 17.0382C49.7328 15.2697 50.9343 13.9369 52.5271 13.9369C54.1124 13.9369 55.2635 15.2409 55.2635 17.0382ZM53.0663 11.5732C51.7544 11.5732 50.6783 12.09 49.791 13.1488V11.957C49.791 11.8629 49.7147 11.7863 49.6206 11.7863H47.2914C47.1973 11.7863 47.1212 11.8629 47.1212 11.957V25.1992C47.1212 25.2933 47.1973 25.3699 47.2914 25.3699H49.6206C49.7147 25.3699 49.791 25.2933 49.791 25.1992V21.0194C50.6785 22.0154 51.7548 22.5019 53.0663 22.5019C55.504 22.5019 57.9718 20.6253 57.9718 17.0382C57.9718 13.4503 55.504 11.5732 53.0663 11.5732Z" fill="#1ED760"/>
<path d="M64.2972 20.1587C62.6274 20.1587 61.3686 18.817 61.3686 17.0382C61.3686 15.2519 62.5839 13.9556 64.2587 13.9556C65.9393 13.9556 67.2067 15.2972 67.2067 17.0772C67.2067 18.8633 65.9831 20.1587 64.2972 20.1587ZM64.2972 11.5733C61.1579 11.5733 58.6984 13.9907 58.6984 17.0772C58.6984 20.1302 61.141 22.5223 64.2587 22.5223C67.4093 22.5223 69.8763 20.113 69.8763 17.0382C69.8763 13.9737 67.4262 11.5733 64.2972 11.5733Z" fill="#1ED760"/>
<path d="M76.5803 11.7863H74.0171V9.16561C74.0171 9.07152 73.9411 8.99505 73.847 8.99505H71.518C71.4237 8.99505 71.3471 9.07152 71.3471 9.16561V11.7863H70.2271C70.1332 11.7863 70.0574 11.8629 70.0574 11.957V13.9589C70.0574 14.0529 70.1332 14.1295 70.2271 14.1295H71.3471V19.3096C71.3471 21.403 72.389 22.4643 74.4438 22.4643C75.2793 22.4643 75.9726 22.2918 76.6258 21.9213C76.6789 21.8917 76.712 21.8344 76.712 21.7736V19.8673C76.712 19.8084 76.6812 19.753 76.6311 19.722C76.5803 19.6902 76.5172 19.6886 76.4652 19.7143C76.0165 19.94 75.5827 20.0443 75.0978 20.0443C74.3506 20.0443 74.0171 19.7051 74.0171 18.9446V14.1295H76.5803C76.6744 14.1295 76.7502 14.0529 76.7502 13.9589V11.957C76.7502 11.8629 76.6744 11.7863 76.5803 11.7863Z" fill="#1ED760"/>
<path d="M85.5108 11.7966V11.4747C85.5108 10.5278 85.8739 10.1055 86.6882 10.1055C87.1738 10.1055 87.5639 10.202 88.0007 10.3477C88.0545 10.3646 88.1106 10.3561 88.1543 10.3239C88.1993 10.2917 88.2247 10.2401 88.2247 10.1854V8.22252C88.2247 8.14749 88.1765 8.0811 88.1043 8.05915C87.6428 7.92188 87.0524 7.78082 86.1682 7.78082C84.0166 7.78082 82.8796 8.99238 82.8796 11.2833V11.7762H81.7605C81.6666 11.7762 81.5895 11.8527 81.5895 11.9468V13.9589C81.5895 14.053 81.6666 14.1295 81.7605 14.1295H82.8796V22.1196C82.8796 22.2137 82.9555 22.2902 83.0494 22.2902H85.3786C85.4727 22.2902 85.5493 22.2137 85.5493 22.1196V14.1295H87.7242L91.0557 22.1175C90.6775 22.9568 90.3056 23.1238 89.7979 23.1238C89.3875 23.1238 88.9553 23.0012 88.5135 22.7594C88.4719 22.7365 88.4228 22.7328 88.3778 22.7466C88.3334 22.7625 88.2959 22.7954 88.277 22.8388L87.4876 24.5708C87.45 24.6526 87.482 24.7488 87.5608 24.7912C88.385 25.2376 89.1291 25.4281 90.0485 25.4281C91.7685 25.4281 92.7192 24.6268 93.5574 22.4714L97.5985 12.029C97.6187 11.9765 97.6127 11.9173 97.5805 11.8705C97.5485 11.8244 97.4969 11.7966 97.4404 11.7966H95.0154C94.9429 11.7966 94.8778 11.8426 94.8541 11.9108L92.37 19.0063L89.6491 11.9061C89.6243 11.8401 89.5607 11.7966 89.49 11.7966H85.5108Z" fill="#1ED760"/>
<path d="M80.3336 11.7863H78.0042C77.9101 11.7863 77.8336 11.8629 77.8336 11.957V22.1196C77.8336 22.2137 77.9101 22.2902 78.0042 22.2902H80.3336C80.4275 22.2902 80.5041 22.2137 80.5041 22.1196V11.957C80.5041 11.8629 80.4275 11.7863 80.3336 11.7863Z" fill="#1ED760"/>
<path d="M79.1806 7.15901C78.258 7.15901 77.509 7.90621 77.509 8.82882C77.509 9.75215 78.258 10.5001 79.1806 10.5001C80.1031 10.5001 80.8512 9.75215 80.8512 8.82882C80.8512 7.90621 80.1031 7.15901 79.1806 7.15901Z" fill="#1ED760"/>
<path d="M99.6825 12.7972H99.2557V13.3415H99.6825C99.8955 13.3415 100.023 13.2372 100.023 13.0692C100.023 12.8922 99.8955 12.7972 99.6825 12.7972ZM99.9592 13.5736L100.423 14.2228H100.032L99.6145 13.6274H99.2557V14.2228H98.9285V12.502H99.6958C100.095 12.502 100.358 12.7066 100.358 13.0509C100.358 13.333 100.195 13.5054 99.9592 13.5736ZM99.5958 11.9295C98.7561 11.9295 98.1206 12.5969 98.1206 13.4143C98.1206 14.2313 98.7516 14.8898 99.5871 14.8898C100.427 14.8898 101.063 14.2228 101.063 13.405C101.063 12.588 100.431 11.9295 99.5958 11.9295ZM99.5871 15.0538C98.6652 15.0538 97.9479 14.3134 97.9479 13.4143C97.9479 12.5152 98.6746 11.7664 99.5958 11.7664C100.517 11.7664 101.235 12.5067 101.235 13.405C101.235 14.3042 100.509 15.0538 99.5871 15.0538Z" fill="#1ED760"/>
</svg>
