<svg width="130" height="25" viewBox="0 0 130 25" fill="none" xmlns="http://www.w3.org/2000/svg">
<g clip-path="url(#clip0_22_225)">
<path d="M94.1544 10.5232C93.6569 13.0503 93.2788 16.1346 93.0799 17.408H92.9405C92.7813 16.0948 92.4033 13.0303 91.8859 10.543L90.6125 4.35469H86.7323V21.0494H89.14V7.28786L89.3786 8.57318L91.8262 21.0494H94.2341L96.6416 8.57318L96.8999 7.28043V15.5532L96.9001 21.0494H99.3078V4.35469H95.388L94.1544 10.5232Z" fill="white"/>
<path d="M105.815 18.5423C105.596 18.9999 105.119 19.3181 104.641 19.3181C104.084 19.3181 103.865 18.8805 103.865 17.8059V8.85182H101.119V17.9652C101.119 20.2136 101.855 21.2483 103.487 21.2483C104.601 21.2483 105.497 20.7508 106.114 19.557H106.173L106.412 21.0494H108.561V8.85182H105.815V18.5423Z" fill="white"/>
<path d="M113.874 13.6672C112.978 13.0106 112.421 12.5728 112.421 11.6176C112.421 10.9411 112.74 10.563 113.496 10.563C114.272 10.563 114.531 11.1003 114.551 12.9309L116.859 12.8314C117.038 9.86658 116.063 8.6328 113.536 8.6328C111.188 8.6328 110.033 9.68756 110.033 11.8564C110.033 13.8263 110.989 14.7218 112.541 15.8958C113.874 16.9305 114.65 17.5076 114.65 18.3432C114.65 18.98 114.252 19.4177 113.555 19.4177C112.74 19.4177 112.262 18.6418 112.382 17.2888L110.054 17.3284C109.695 19.8555 110.71 21.3279 113.416 21.3279C115.784 21.3279 117.018 20.2337 117.018 18.0448C117.018 16.055 116.023 15.2591 113.874 13.6672Z" fill="white"/>
<path d="M118.53 21.0494H121.157V8.8518H118.53V21.0494Z" fill="white"/>
<path d="M119.863 4.03635C118.849 4.03635 118.372 4.41446 118.372 5.72779C118.372 7.08092 118.849 7.41913 119.863 7.41913C120.898 7.41913 121.356 7.08092 121.356 5.72779C121.356 4.47414 120.898 4.03635 119.863 4.03635Z" fill="white"/>
<path d="M129.992 16.652L127.584 16.5325C127.584 18.6816 127.345 19.3779 126.53 19.3779C125.714 19.3779 125.574 18.602 125.574 16.0749V13.707C125.574 11.2594 125.734 10.4834 126.549 10.4834C127.306 10.4834 127.505 11.2196 127.505 13.4881L129.892 13.3289C130.052 11.4385 129.813 10.1451 129.077 9.40885C128.539 8.87158 127.724 8.61302 126.589 8.61302C123.923 8.61302 122.828 10.0457 122.828 14.0651V15.7763C122.828 19.9154 123.764 21.2483 126.49 21.2483C127.644 21.2483 128.44 21.0096 128.977 20.4923C129.753 19.7758 130.052 18.5423 129.992 16.652Z" fill="white"/>
<path d="M39.3351 18.7816C39.4874 18.3835 39.5639 17.7337 39.5639 16.8312V13.03C39.5639 12.1543 39.4874 11.5144 39.3351 11.1095C39.1823 10.7048 38.9137 10.5024 38.5291 10.5024C38.1574 10.5024 37.8953 10.7048 37.743 11.1095C37.5903 11.5144 37.5142 12.1543 37.5142 13.03V16.8312C37.5142 17.7337 37.5868 18.3835 37.7329 18.7816C37.8788 19.1795 38.1441 19.3786 38.5291 19.3786C38.9137 19.3786 39.1823 19.1795 39.3351 18.7816ZM36.2504 20.692C35.6995 20.321 35.3081 19.7436 35.0763 18.9608C34.8438 18.1779 34.7279 17.1365 34.7279 15.836V14.0649C34.7279 12.7514 34.8603 11.6965 35.1258 10.9004C35.3912 10.1045 35.8056 9.52419 36.3697 9.15917C36.9334 8.79449 37.6732 8.61196 38.5886 8.61196C39.4908 8.61196 40.2139 8.79778 40.7581 9.16909C41.3019 9.54066 41.6997 10.1212 41.9521 10.9104C42.2041 11.6999 42.3303 12.7514 42.3303 14.0649V15.836C42.3303 17.1365 42.2075 18.1815 41.962 18.9706C41.7165 19.7602 41.3184 20.3373 40.768 20.7021C40.2171 21.0669 39.4709 21.2494 38.5291 21.2494C37.5605 21.2494 36.8007 21.0636 36.2504 20.692Z" fill="white"/>
<path d="M78.8683 10.7304C78.7291 10.903 78.6361 11.1849 78.5898 11.5763C78.5431 11.9678 78.5202 12.5613 78.5202 13.3575V14.2332H80.5303V13.3575C80.5303 12.5748 80.5035 11.9811 80.4508 11.5763C80.3976 11.1717 80.3017 10.8865 80.162 10.7205C80.0227 10.5547 79.8069 10.4717 79.5151 10.4717C79.2233 10.4717 79.0078 10.5582 78.8683 10.7304ZM78.5202 15.8651V16.482C78.5202 17.2651 78.5431 17.8522 78.5898 18.2435C78.6361 18.6349 78.7321 18.92 78.8786 19.0993C79.0243 19.2784 79.2497 19.3678 79.555 19.3678C79.9661 19.3678 80.2481 19.2086 80.4009 18.8903C80.5532 18.5718 80.6363 18.0413 80.6496 17.2979L83.0179 17.4373C83.0312 17.5438 83.0378 17.6897 83.0378 17.8753C83.0378 19.0031 82.7293 19.8454 82.1125 20.4028C81.4954 20.9599 80.623 21.2386 79.4952 21.2386C78.142 21.2386 77.1931 20.8141 76.6491 19.9649C76.1052 19.116 75.8333 17.8026 75.8333 16.0244V13.8948C75.8333 12.0639 76.1152 10.7273 76.6791 9.88457C77.243 9.04213 78.2085 8.62074 79.5749 8.62074C80.517 8.62074 81.2398 8.79341 81.7442 9.1383C82.2483 9.48349 82.6031 10.0208 82.809 10.7502C83.0145 11.4801 83.1178 12.4887 83.1178 13.7754V15.8651H78.5202Z" fill="white"/>
<path d="M29.5625 15.6366L26.4379 4.35238H29.1644L30.259 9.4671C30.5378 10.7277 30.7432 11.8024 30.8761 12.6912H30.9556C31.0483 12.0543 31.254 10.9865 31.5726 9.48705L32.7071 4.35238H35.4336L32.2691 15.6366V21.0503H29.5625V15.6366Z" fill="white"/>
<path d="M51.1979 8.85064V21.0502H49.0483L48.8095 19.5576H48.7501C48.1658 20.6856 47.2902 21.2493 46.1228 21.2493C45.3136 21.2493 44.7162 20.984 44.3319 20.4532C43.9469 19.9226 43.7545 19.0935 43.7545 17.9655V8.85064H46.5009V17.8065C46.5009 18.3505 46.5607 18.7385 46.6803 18.9707C46.7996 19.2028 46.9984 19.319 47.2772 19.319C47.5161 19.319 47.7449 19.246 47.9638 19.0999C48.1828 18.9541 48.345 18.7685 48.4515 18.5425V8.85064H51.1979Z" fill="white"/>
<path d="M65.2854 8.85064V21.0502H63.1358L62.8969 19.5576H62.8376C62.2533 20.6856 61.3777 21.2493 60.2103 21.2493C59.4011 21.2493 58.8037 20.984 58.4194 20.4532C58.0344 19.9226 57.842 19.0935 57.842 17.9655V8.85064H60.5884V17.8065C60.5884 18.3505 60.6482 18.7385 60.7675 18.9707C60.8871 19.2028 61.0859 19.319 61.3646 19.319C61.6035 19.319 61.8323 19.246 62.0513 19.0999C62.2703 18.9541 62.4324 18.7685 62.5389 18.5425V8.85064H65.2854Z" fill="white"/>
<path d="M58.6608 6.56181H55.9343V21.0501H53.2476V6.56181H50.5211V4.35272H58.6608V6.56181Z" fill="white"/>
<path d="M71.8573 15.7769C71.8573 16.6661 71.8207 17.3626 71.7478 17.8665C71.675 18.371 71.552 18.7293 71.3795 18.9413C71.2073 19.1538 70.9748 19.2598 70.683 19.2598C70.4574 19.2598 70.2485 19.2068 70.0564 19.1006C69.8637 18.9943 69.7082 18.8353 69.5887 18.6228V11.697C69.6812 11.3656 69.8406 11.0935 70.0662 10.8811C70.2916 10.669 70.5371 10.5627 70.8026 10.5627C71.0813 10.5627 71.2966 10.6722 71.4494 10.891C71.6017 11.1098 71.708 11.4782 71.7678 11.9956C71.8275 12.513 71.8573 13.2494 71.8573 14.2047V15.7769ZM74.3752 10.8006C74.2089 10.0315 73.9402 9.47416 73.569 9.12899C73.1974 8.7841 72.6865 8.61159 72.0367 8.61159C71.5321 8.61159 71.0614 8.7543 70.6235 9.03944C70.1858 9.32485 69.8472 9.69963 69.6086 10.164H69.5882L69.5887 3.73559H66.9416V21.0501H69.2105L69.4892 19.8957H69.5488C69.7609 20.3073 70.0793 20.632 70.5039 20.8709C70.9285 21.1098 71.3995 21.2292 71.9171 21.2292C72.8456 21.2292 73.5291 20.8014 73.9668 19.9456C74.4047 19.0899 74.6239 17.7533 74.6239 15.9353V14.0049C74.6239 12.6386 74.5406 11.5705 74.3752 10.8006Z" fill="white"/>
<path d="M12.0901 24.6219C18.7674 24.6219 24.1803 19.209 24.1803 12.5318C24.1803 5.85459 18.7674 0.441692 12.0901 0.441692C5.41292 0.441692 0 5.85459 0 12.5318C0 19.209 5.41292 24.6219 12.0901 24.6219Z" fill="#ED1D24"/>
<path d="M12.0901 5.18941C8.03538 5.18941 4.74754 8.47706 4.74754 12.5318C4.74754 16.5865 8.03538 19.8743 12.0901 19.8743C16.1448 19.8743 19.4326 16.5865 19.4326 12.5318C19.4326 8.47706 16.1448 5.18941 12.0901 5.18941ZM12.0901 6.16527C15.6009 6.16527 18.4567 9.02104 18.4567 12.5318C18.4567 16.0425 15.6009 18.8984 12.0901 18.8984C8.57936 18.8984 5.72349 16.0425 5.72349 12.5318C5.72349 9.02104 8.57936 6.16527 12.0901 6.16527Z" fill="white"/>
<path d="M9.75453 16.1039L15.9369 12.5318L9.75453 8.95969V16.1039Z" fill="white"/>
</g>
<defs>
<clipPath id="clip0_22_225">
<rect width="130" height="24.18" fill="white" transform="translate(0 0.442017)"/>
</clipPath>
</defs>
</svg>
